# xmcd
#
# Track frame offsets:
#	150
#	13987
#	33017
#	49207
#	66767
#	86597
#	107317
#	125767
#	148607
#	162225
#	175660
#	191117
#	217262
#
# Disc length: 3138 seconds
# Revision: 2
# Processed by: cddbd v1.5.2PL0 Copyright (c) Steve Scherf et al.
# Submitted via: dBpowerAMP V12.0
#
DISCID=b80c400d
DTITLE=EricSardinas,FortLauderdale,FL - Devil'sTrain
DYEAR=2001
DGENRE=Blues
TTITLE0=Piece Of Me
TTITLE1=My Sweet Time
TTITLE2=Texola
TTITLE3=Aggravatin' Papa
TTITLE4=Killin' Time Blues
TTITLE5=My Kind Of Woman
TTITLE6=Country Mile
TTITLE7=Gambling Man Blues
TTITLE8=Down To Whiskey
TTITLE9=Devil's Train
TTITLE10=Be Your Man
TTITLE11=Sidewinder
TTITLE12=8 Goin' South
EXTD=
EXTT0=
EXTT1=
EXTT2=
EXTT3=
EXTT4=
EXTT5=
EXTT6=
EXTT7=
EXTT8=
EXTT9=
EXTT10=
EXTT11=
EXTT12=
PLAYORDER=
